<svg xmlns="http://www.w3.org/2000/svg" viewBox="0 0 64 64"><rect width="64" height="64" rx="14" fill="#faf7f2"/><g fill="none" stroke="#4f7d5f" stroke-width="4" stroke-linecap="round"><path d="M13 38c0 12 8.6 17.5 19 17.5S51 50 51 38"/></g><path d="M32 11c-5.2 4.2-6.2 10.4-2 14.6 4.2-1 7.3-6.2 6.2-11.4-.8-1.5-2.4-2.7-4.2-3.2z" fill="#4f7d5f"/><path d="M17.5 21.5c-1 5.7 1.7 10.4 6.9 11 1.9-3.5.6-9-3.1-11.9-1.4-.2-2.7 0-3.8.9z" fill="#6f9d7f"/><path d="M46.5 21.5c1 5.7-1.7 10.4-6.9 11-1.9-3.5-.6-9 3.1-11.9 1.4-.2 2.7 0 3.8.9z" fill="#c98a2d"/></svg>
