<svg xmlns="http://www.w3.org/2000/svg" viewBox="0 0 64 64" width="64" height="64" role="img" aria-label="WellNest">
  <g fill="none" stroke="#4f7d5f" stroke-width="3.4" stroke-linecap="round">
    <path d="M12 38c0 12 9 18 20 18s20-6 20-18"/>
    <path d="M17 44c3.5 6.5 8.5 9.5 15 9.5S43.5 50.5 47 44" stroke-opacity=".55"/>
  </g>
  <g stroke-linejoin="round">
    <path d="M32 12c-5 4-6 10-2 14 4-1 7-6 6-11-.8-1.4-2.3-2.6-4-3z" fill="#4f7d5f"/>
    <path d="M18 22c-1 5.5 1.6 10 6.6 10.6 1.8-3.4.6-8.6-3-11.4-1.3-.2-2.6 0-3.6.8z" fill="#6f9d7f"/>
    <path d="M46 22c1 5.5-1.6 10-6.6 10.6-1.8-3.4-.6-8.6 3-11.4 1.3-.2 2.6 0 3.6.8z" fill="#c98a2d"/>
  </g>
</svg>
